<svg width="32" height="32" viewBox="0 0 32 32" fill="none" xmlns="http://www.w3.org/2000/svg">
<path d="M29.0218 15.975C28.9475 10.5563 25.63 5.70439 20.55 3.76752C15.4375 1.81814 9.40308 3.44377 5.94371 7.67439C2.49996 11.885 1.97871 17.9494 4.78308 22.6431C7.58246 27.3275 13.0687 29.7406 18.4137 28.7788C24.5068 27.6825 28.8681 22.2088 29.0168 16.1138C29.0206 16.0694 29.0225 16.0225 29.0218 15.975ZM19.625 26.0056C15.3875 27.5244 10.575 26.1963 7.71683 22.7194C4.89808 19.29 4.56246 14.3025 6.82996 10.5031C9.08683 6.72627 13.605 4.65439 17.9418 5.48439C22.9837 6.45002 26.5818 10.875 26.6518 15.975C26.5906 20.4131 23.8487 24.4919 19.625 26.0056Z" fill="white"/>
<path d="M20.7688 10.9581L14.7844 18.5731L11.8025 16.6213C10.5225 15.7838 9.33376 17.8344 10.6063 18.6675L14.4375 21.1775C14.8319 21.4356 15.5625 21.385 15.875 20.99L22.4444 12.6338C23.375 11.4475 21.7106 9.75876 20.7688 10.9581Z" fill="white"/>
</svg>
