<svg width="30" height="30" viewBox="0 0 30 30" fill="none" xmlns="http://www.w3.org/2000/svg">
<g clip-path="url(#clip0_60_380)">
<path d="M26.0306 17.4558C25.3612 17.4558 24.8187 17.9983 24.8187 18.6677V26.0305C24.8187 26.8829 24.1253 27.5763 23.273 27.5763H3.96949C3.11713 27.5763 2.42373 26.8828 2.42373 26.0305V6.72712C2.42373 5.87476 3.11719 5.18136 3.96949 5.18136H11.3324C12.0016 5.18136 12.5442 4.63878 12.5442 3.96953C12.5442 3.30027 12.0016 2.75769 11.3324 2.75769H3.96949C1.78072 2.75769 0 4.53841 0 6.72718V26.0306C5.85938e-05 28.2193 1.78078 30 3.96949 30H23.2729C25.4617 30 27.2424 28.2193 27.2424 26.0305V18.6676C27.2424 17.9983 26.6999 17.4558 26.0306 17.4558Z" fill="#FE7596"/>
<path d="M29.6451 5.87044L24.1298 0.35519C23.6566 -0.118071 22.8893 -0.118071 22.416 0.35519L8.62791 14.1434C8.40068 14.3706 8.27295 14.6789 8.27295 15.0003V20.5155C8.27295 21.1849 8.81553 21.7274 9.48479 21.7274H15C15.3215 21.7274 15.6297 21.5997 15.8569 21.3725L29.6451 7.58425C29.8724 7.35697 30 7.04871 30 6.72732C30 6.40593 29.8724 6.09773 29.6451 5.87044ZM14.4981 19.3036H10.6967V15.5022L23.2729 2.92593L27.0744 6.72738L14.4981 19.3036Z" fill="#FE7596"/>
</g>
<defs>
<clipPath id="clip0_60_380">
<rect width="30" height="30" fill="white"/>
</clipPath>
</defs>
</svg>
