<svg width="50" height="50" viewBox="0 0 50 50" fill="none" xmlns="http://www.w3.org/2000/svg">
<mask id="mask0_59_145" style="mask-type:luminance" maskUnits="userSpaceOnUse" x="0" y="0" width="50" height="50">
<path d="M49.0739 0.925919H0.925781V49.0741H49.0739V0.925919Z" fill="white"/>
</mask>
<g mask="url(#mask0_59_145)">
<path d="M46.0232 13.3194L45.9908 13.287C46.1697 12.6576 46.26 12.0062 46.2593 11.3519C46.2607 10.2432 46.0058 9.14924 45.5145 8.15536C45.0233 7.16148 44.309 6.29457 43.4275 5.6223C42.5459 4.95003 41.5209 4.4906 40.4325 4.27985C39.344 4.06911 38.2216 4.11277 37.1528 4.40741C35.0221 2.28143 32.135 1.08746 29.1251 1.08746C26.1151 1.08746 23.228 2.28143 21.0973 4.40741L4.13431 21.3843C2.00804 23.5158 0.813965 26.4036 0.813965 29.4144C0.813965 32.4251 2.00804 35.3129 4.13431 37.4444C3.79117 38.6723 3.78093 39.9694 4.10464 41.2026C4.42835 42.4357 5.07434 43.5606 5.97633 44.4616C6.87832 45.3627 8.00382 46.0075 9.23731 46.3299C10.4708 46.6523 11.7679 46.6407 12.9954 46.2963L13.0278 46.3241C15.1858 48.2817 18.0147 49.3334 20.9274 49.261C23.8402 49.1886 26.6133 47.9976 28.6713 45.9352L33.0186 41.5926L31.7084 40.2778L27.3658 44.6204C25.7603 46.2256 23.6324 47.2018 21.3685 47.3717C19.1046 47.5415 16.8549 46.8939 15.0278 45.5463L45.2686 15.3148C46.6143 17.1426 47.2608 19.3919 47.091 21.6553C46.9211 23.9187 45.9461 26.0464 44.3426 27.6528L35.6482 36.338L36.9584 37.6481L45.6343 28.963C47.6957 26.9043 48.886 24.1314 48.9584 21.219C49.0308 18.3066 47.9798 15.478 46.0232 13.3194ZM2.66209 29.412C2.65791 28.1643 2.90126 26.9281 3.37807 25.775C3.85488 24.6219 4.55566 23.5749 5.43986 22.6944L22.4075 5.73611C24.0721 4.0625 26.3006 3.06927 28.6581 2.95028C31.0156 2.83129 33.3328 3.59509 35.1575 5.09259L34.0047 6.24537L5.98153 34.2917L4.82412 35.4491C3.42005 33.7512 2.65508 31.6152 2.66209 29.412ZM42.8473 15.1157L14.7362 43.2269C13.7367 44.2263 12.3811 44.7878 10.9676 44.7878C9.55417 44.7878 8.1986 44.2263 7.19912 43.2269C6.19965 42.2274 5.63815 40.8718 5.63815 39.4583C5.63815 38.0449 6.19965 36.6893 7.19912 35.6898L35.3102 7.5787C36.3102 6.58017 37.6656 6.01932 39.0788 6.01932C40.4919 6.01932 41.8473 6.58017 42.8473 7.5787C43.8458 8.57868 44.4067 9.93407 44.4067 11.3472C44.4067 12.7604 43.8458 14.1158 42.8473 15.1157Z" fill="white"/>
<path d="M11.9308 37.5C11.7483 37.4992 11.57 37.4445 11.4184 37.3427C11.2669 37.2409 11.1488 37.0966 11.0791 36.9279C11.0093 36.7592 10.991 36.5736 11.0264 36.3945C11.0618 36.2154 11.1493 36.0508 11.2781 35.9213C12.1669 35.0324 13.4956 34.8194 14.7873 34.6065C15.7873 34.4444 16.8197 34.2778 17.2827 33.8102C17.7456 33.3426 17.9169 32.3148 18.079 31.3148C18.2873 30.0278 18.5049 28.6944 19.3938 27.8056C20.2827 26.9167 21.6114 26.7037 22.9031 26.4907C23.9031 26.3287 24.9355 26.162 25.3984 25.6944C25.8614 25.2268 26.0327 24.1991 26.1947 23.1991C26.4031 21.912 26.6206 20.5787 27.5095 19.6898C28.3984 18.8009 29.7271 18.588 31.0188 18.375C32.0188 18.213 33.0512 18.0463 33.5142 17.5787C33.9771 17.1111 34.1484 16.0833 34.3105 15.0833C34.5188 13.7963 34.7364 12.463 35.6253 11.5741C35.7113 11.488 35.8134 11.4198 35.9258 11.3732C36.0382 11.3267 36.1587 11.3027 36.2804 11.3027C36.402 11.3027 36.5225 11.3267 36.6349 11.3732C36.7473 11.4198 36.8494 11.488 36.9355 11.5741C37.0215 11.6601 37.0897 11.7622 37.1363 11.8746C37.1828 11.987 37.2068 12.1075 37.2068 12.2292C37.2068 12.3508 37.1828 12.4713 37.1363 12.5837C37.0897 12.6961 37.0215 12.7982 36.9355 12.8843C36.4725 13.3472 36.3012 14.3796 36.1392 15.3796C35.9308 16.6667 35.7132 18 34.8243 18.8889C33.9355 19.7778 32.6068 19.9907 31.3151 20.2037C30.3151 20.3657 29.2827 20.5324 28.8197 21C28.3568 21.4676 28.1855 22.4954 28.0234 23.4954C27.8151 24.7824 27.5975 26.1157 26.7086 27.0046C25.8197 27.8935 24.491 28.1065 23.1993 28.3194C22.1993 28.4815 21.1669 28.6481 20.704 29.1157C20.241 29.5833 20.0605 30.5926 19.9077 31.5926C19.6993 32.8796 19.4818 34.213 18.5929 35.1018C17.704 35.9907 16.3753 36.2037 15.0836 36.4167C14.0836 36.5787 13.0512 36.7454 12.5882 37.213C12.5033 37.3021 12.4013 37.3734 12.2885 37.4227C12.1756 37.472 12.054 37.4983 11.9308 37.5Z" fill="white"/>
<path d="M34.9135 39.545C35.2751 39.1834 35.2751 38.5971 34.9135 38.2355C34.5519 37.8739 33.9657 37.8739 33.6041 38.2355C33.2425 38.5971 33.2425 39.1834 33.6041 39.545C33.9657 39.9065 34.5519 39.9065 34.9135 39.545Z" fill="white"/>
</g>
</svg>
