<svg width="40" height="40" viewBox="0 0 40 40" fill="none" xmlns="http://www.w3.org/2000/svg">
<path d="M38.2436 11.5637H26.7398L28.6431 7.02597H36.2572C36.8637 7.02597 37.3552 6.53444 37.3552 5.92824C37.3552 5.32172 36.8637 4.8302 36.2572 4.8302H27.9131C27.471 4.8302 27.0716 5.0958 26.9007 5.50359L24.3587 11.564H14.6167L12.0747 5.50359C11.9034 5.0958 11.5041 4.8302 11.0623 4.8302H2.71823C2.11171 4.8302 1.62019 5.32172 1.62019 5.92824C1.62019 6.53444 2.11171 7.02597 2.71823 7.02597H10.3323L12.2356 11.5637H1.75674C0.786501 11.5637 0 12.3502 0 13.3205C0 14.2907 0.786501 15.0772 1.75674 15.0772H3.181C3.181 15.1488 3.18788 15.221 3.20194 15.2913L6.60792 32.4362C6.67135 33.9545 7.92626 35.17 9.45989 35.17H30.4117C31.9456 35.17 33.2015 33.9532 33.2637 32.4343L36.6131 15.2878C36.6265 15.2185 36.6334 15.1481 36.6334 15.0772H38.2433C39.2132 15.0772 40 14.2907 40 13.3205C40 12.3502 39.2135 11.5637 38.2436 11.5637ZM32.1765 26.5466H25.603V21.5401H33.1543L32.1765 26.5466ZM24.0222 26.5466H15.8316V21.5401H24.0222V26.5466ZM24.0222 28.1274V32.9739H15.8316V28.1274H24.0222ZM6.68198 21.5401H14.2508V26.5466H7.67659L6.68198 21.5401ZM15.8316 19.9593V15.0769H24.0222V19.9593H15.8316ZM14.2508 15.0769V19.9593H6.36825L5.39833 15.0769H14.2508ZM8.80119 32.3152C8.80119 32.2437 8.79431 32.1715 8.78025 32.1012L7.99094 28.1274H14.2511V32.9739H9.45989C9.09679 32.9739 8.80119 32.6786 8.80119 32.3152ZM31.0707 32.3152C31.0707 32.6783 30.7751 32.9739 30.412 32.9739H25.603V28.1274H31.8678L31.091 32.1046C31.0776 32.1743 31.0707 32.2446 31.0707 32.3152ZM33.463 19.9593H25.603V15.0769H34.4167L33.463 19.9593Z" fill="white"/>
</svg>
