<svg width="32" height="32" viewBox="0 0 32 32" fill="none" xmlns="http://www.w3.org/2000/svg">
<g clip-path="url(#clip0_19_174)">
<path d="M31.5626 16.0625C31.5626 18.2375 31.5188 20.4187 31.5751 22.5937C31.6688 26.4437 29.2501 29.4187 26.1688 30.7437C24.9313 31.275 23.6313 31.5562 22.2876 31.5562C18.0813 31.5625 13.8688 31.6187 9.6626 31.5375C6.49385 31.475 3.8876 30.15 2.01885 27.5375C1.0376 26.1625 0.568848 24.6 0.568848 22.9062C0.568848 18.425 0.568848 13.95 0.568848 9.46873C0.568848 5.81248 2.3501 3.25623 5.5126 1.59373C6.8876 0.874985 8.38135 0.568735 9.9376 0.562485C14.0188 0.562485 18.1063 0.537485 22.1876 0.574985C25.3563 0.599985 28.0001 1.81248 29.9501 4.36248C31.0376 5.78748 31.5626 7.42498 31.5626 9.22499C31.5626 11.5 31.5626 13.7812 31.5626 16.0625ZM2.8751 16.0625C2.8751 18.3562 2.8751 20.6437 2.8751 22.9375C2.8751 23.9625 3.1126 24.925 3.64385 25.7937C5.0376 28.075 7.14385 29.1875 9.75635 29.2312C13.9501 29.2937 18.1501 29.2562 22.3501 29.2437C23.3813 29.2437 24.3813 29.0312 25.3126 28.5875C27.8501 27.375 29.2688 25.4437 29.2563 22.5437C29.2313 18.1062 29.2501 13.6687 29.2501 9.23123C29.2501 7.97498 28.8938 6.82498 28.1501 5.81248C26.7126 3.86873 24.7251 2.91248 22.3501 2.88748C18.1626 2.83748 13.9751 2.86873 9.7876 2.87498C8.89385 2.87498 8.03135 3.05623 7.19385 3.36873C4.89385 4.22498 2.75635 6.39373 2.85635 9.58748C2.93135 11.75 2.8751 13.9062 2.8751 16.0625Z" fill="white"/>
<path d="M16.1 22.6875C12.0688 22.6875 8.81876 19.475 8.81251 15.475C8.80626 11.5375 12.0813 8.31251 16.0875 8.31251C20.1063 8.30626 23.3688 11.525 23.375 15.4938C23.375 19.4563 20.1188 22.6813 16.1 22.6875ZM16.1 20.375C18.8438 20.375 21.0688 18.1813 21.0625 15.4813C21.0563 12.8063 18.8313 10.6188 16.1 10.6188C13.3563 10.6188 11.1188 12.8 11.1188 15.4938C11.125 18.1938 13.3563 20.3813 16.1 20.375Z" fill="white"/>
<path d="M24.2189 6.125C25.0626 6.125 25.7501 6.84375 25.7501 7.725C25.7439 8.60625 25.0501 9.31875 24.2064 9.3125C23.3751 9.30625 22.6939 8.59375 22.6939 7.73125C22.6876 6.85 23.3751 6.125 24.2189 6.125Z" fill="white"/>
</g>
<defs>
<clipPath id="clip0_19_174">
<rect width="32" height="32" fill="white"/>
</clipPath>
</defs>
</svg>
