<svg width="40" height="40" viewBox="0 0 40 40" fill="none" xmlns="http://www.w3.org/2000/svg">
<g clip-path="url(#clip0_60_319)">
<path d="M28.6793 40C26.8637 40 25.3876 38.5226 25.3876 36.707L26.3373 16.7534C23.572 15.716 21.9382 12.7053 21.9382 8.58205C21.9382 3.84985 24.9617 0 28.6793 0C32.3956 0 35.4203 3.84985 35.4203 8.58205C35.4203 12.7053 33.7866 15.7147 31.0225 16.7534L31.971 36.6778C31.971 38.5226 30.4949 40 28.6793 40ZM28.6793 1.27142C25.6635 1.27142 23.2096 4.5504 23.2096 8.58205C23.2096 12.3378 24.6896 14.9951 27.1663 15.688C27.4524 15.7681 27.6443 16.0338 27.6304 16.3301L26.6577 36.7375C26.6577 37.8233 27.5642 38.7286 28.6793 38.7286C29.793 38.7286 30.6996 37.8221 30.6996 36.707L29.7282 16.3301C29.7142 16.0351 29.9062 15.7681 30.1923 15.688C32.6703 14.9951 34.1489 12.3378 34.1489 8.58205C34.1489 4.5504 31.6951 1.27142 28.6793 1.27142Z" fill="white"/>
<path d="M11.3206 40C9.50505 40 8.02894 38.5226 8.02894 36.707L8.97869 16.742C6.36466 15.7961 4.57959 13.3003 4.57959 10.5044V0.635708C4.57959 0.284797 4.86439 0 5.2153 0H8.062C8.41291 0 8.6977 0.284797 8.6977 0.635708V9.16818H9.40334V0.635708C9.40334 0.284797 9.68814 0 10.039 0H12.6022C12.9531 0 13.2379 0.284797 13.2379 0.635708V9.16818H13.9436V0.635708C13.9436 0.284797 14.2284 0 14.5793 0H17.426C17.7769 0 18.0617 0.284797 18.0617 0.635708V10.5044C18.0617 13.3003 16.2766 15.7961 13.6626 16.742L14.6123 36.6778C14.6123 38.5226 13.1362 40 11.3206 40ZM5.85101 1.27142V10.5044C5.85101 12.9023 7.47715 15.0281 9.80638 15.6727C10.0924 15.7528 10.2857 16.0173 10.2717 16.3148L9.30036 36.7375C9.30036 37.8233 10.2069 38.7286 11.3206 38.7286C12.4344 38.7286 13.3409 37.8221 13.3409 36.707L12.3696 16.3148C12.3556 16.0186 12.5488 15.7528 12.8349 15.6727C15.1641 15.0269 16.7903 12.9011 16.7903 10.5044V1.27142H15.215V9.80388C15.215 10.1548 14.9302 10.4396 14.5793 10.4396H12.6022C12.2513 10.4396 11.9665 10.1548 11.9665 9.80388V1.27142H10.6748V9.80388C10.6748 10.1548 10.39 10.4396 10.039 10.4396H8.06327C7.71236 10.4396 7.42756 10.1548 7.42756 9.80388V1.27142H5.85101Z" fill="white"/>
</g>
<defs>
<clipPath id="clip0_60_319">
<rect width="40" height="40" fill="white"/>
</clipPath>
</defs>
</svg>
