<svg width="40" height="40" viewBox="0 0 40 40" fill="none" xmlns="http://www.w3.org/2000/svg">
<path d="M20 2C16.4399 2 12.9598 3.05568 9.99974 5.03355C7.03966 7.01141 4.73255 9.82263 3.37018 13.1117C2.0078 16.4008 1.65134 20.02 2.34587 23.5116C3.04041 27.0033 4.75474 30.2106 7.27209 32.7279C9.78943 35.2453 12.9967 36.9596 16.4884 37.6541C19.98 38.3487 23.5992 37.9922 26.8883 36.6298C30.1774 35.2675 32.9886 32.9604 34.9665 30.0003C36.9443 27.0402 38 23.5601 38 20C38 15.2261 36.1036 10.6477 32.7279 7.27208C29.3523 3.89642 24.7739 2 20 2ZM20 36.11C16.8138 36.11 13.699 35.1652 11.0498 33.395C8.4005 31.6248 6.33564 29.1087 5.11631 26.165C3.89698 23.2213 3.57795 19.9821 4.19956 16.8571C4.82117 13.7321 6.35549 10.8615 8.60852 8.60851C10.8615 6.35549 13.7321 4.82116 16.8571 4.19955C19.9821 3.57794 23.2213 3.89697 26.165 5.1163C29.1088 6.33563 31.6248 8.40049 33.395 11.0498C35.1652 13.699 36.11 16.8137 36.11 20C36.1047 24.271 34.4057 28.3656 31.3857 31.3856C28.3656 34.4057 24.271 36.1047 20 36.11Z" fill="white"/>
<path d="M16.8599 15.28C16.8599 14.5898 16.6552 13.915 16.2717 13.3411C15.8882 12.7672 15.3432 12.3199 14.7054 12.0557C14.0677 11.7916 13.366 11.7224 12.689 11.8571C12.012 11.9918 11.3902 12.3242 10.9021 12.8122C10.414 13.3003 10.0816 13.9222 9.94694 14.5992C9.81228 15.2762 9.88139 15.9779 10.1455 16.6156C10.4097 17.2533 10.857 17.7984 11.4309 18.1819C12.0049 18.5654 12.6796 18.77 13.3699 18.77C14.2955 18.77 15.1832 18.4023 15.8377 17.7478C16.4922 17.0933 16.8599 16.2056 16.8599 15.28ZM11.7799 15.28C11.7799 14.9656 11.8731 14.6582 12.0478 14.3967C12.2226 14.1352 12.4709 13.9314 12.7614 13.8111C13.052 13.6907 13.3716 13.6592 13.6801 13.7206C13.9885 13.7819 14.2718 13.9334 14.4942 14.1557C14.7165 14.3781 14.868 14.6614 14.9293 14.9698C14.9907 15.2783 14.9592 15.598 14.8389 15.8885C14.7185 16.179 14.5147 16.4274 14.2532 16.6021C13.9918 16.7768 13.6844 16.87 13.3699 16.87C12.9482 16.87 12.5438 16.7025 12.2456 16.4043C11.9474 16.1062 11.7799 15.7017 11.7799 15.28Z" fill="white"/>
<path d="M26.6299 20.87C25.9396 20.87 25.2649 21.0747 24.691 21.4582C24.117 21.8417 23.6697 22.3867 23.4056 23.0244C23.1414 23.6621 23.0723 24.3639 23.207 25.0409C23.3416 25.7179 23.674 26.3397 24.1621 26.8278C24.6502 27.3159 25.272 27.6483 25.949 27.7829C26.626 27.9176 27.3277 27.8485 27.9655 27.5843C28.6032 27.3202 29.1482 26.8729 29.5317 26.2989C29.9152 25.725 30.1199 25.0503 30.1199 24.36C30.1199 23.4344 29.7522 22.5467 29.0977 21.8922C28.4432 21.2377 27.5555 20.87 26.6299 20.87ZM26.6299 25.95C26.3154 25.95 26.008 25.8567 25.7465 25.682C25.4851 25.5073 25.2813 25.259 25.1609 24.9685C25.0406 24.6779 25.0091 24.3582 25.0704 24.0498C25.1318 23.7414 25.2832 23.4581 25.5056 23.2357C25.728 23.0133 26.0113 22.8619 26.3197 22.8005C26.6281 22.7392 26.9478 22.7707 27.2384 22.891C27.5289 23.0114 27.7772 23.2152 27.9519 23.4766C28.1266 23.7381 28.2199 24.0455 28.2199 24.36C28.2266 24.573 28.1904 24.7851 28.1135 24.9838C28.0366 25.1825 27.9206 25.3638 27.7722 25.5168C27.6239 25.6697 27.4464 25.7913 27.2501 25.8744C27.0539 25.9574 26.843 26.0001 26.6299 26V25.95Z" fill="white"/>
<path d="M27.2299 11.06C27.0312 10.9138 26.7855 10.8462 26.54 10.8702C26.2945 10.8942 26.0666 11.0081 25.8999 11.19L12.6399 27.19C12.559 27.2858 12.498 27.3969 12.4606 27.5167C12.4233 27.6365 12.4102 27.7625 12.4224 27.8874C12.4345 28.0123 12.4715 28.1335 12.5312 28.2439C12.5909 28.3542 12.672 28.4515 12.7699 28.53C12.9405 28.667 13.1512 28.7443 13.3699 28.75C13.5093 28.7458 13.6462 28.7125 13.7719 28.6522C13.8976 28.5919 14.0094 28.506 14.0999 28.4L27.3599 12.4C27.4409 12.3042 27.5019 12.1931 27.5392 12.0733C27.5766 11.9535 27.5896 11.8275 27.5775 11.7026C27.5654 11.5777 27.5284 11.4565 27.4687 11.3461C27.409 11.2358 27.3278 11.1385 27.2299 11.06Z" fill="white"/>
</svg>
